<svg version="1.1" id="Layer_1" xmlns="http://www.w3.org/2000/svg" xmlns:xlink="http://www.w3.org/1999/xlink" x="0px"
	y="0px" width="100%" viewBox="0 0 793 208" enable-background="new 0 0 793 208" xml:space="preserve">
	<path fill="" opacity="1.000000" stroke="none" d="
M512.000000,209.000000 
	C341.333344,209.000000 171.166702,209.000000 1.000046,209.000000 
	C1.000031,139.666702 1.000031,70.333389 1.000015,1.000064 
	C265.333282,1.000043 529.666565,1.000043 793.999878,1.000021 
	C793.999878,70.333267 793.999878,139.666534 793.999939,208.999908 
	C700.166687,209.000000 606.333313,209.000000 512.000000,209.000000 
M698.154541,76.236565 
	C699.848206,73.994553 701.541870,71.752541 703.387695,69.309105 
	C698.915039,62.947567 694.529968,56.684483 690.116516,50.441437 
	C686.471313,45.285122 683.831238,38.099087 678.842285,35.575600 
	C673.653381,32.950939 666.180908,34.819431 659.706665,34.764305 
	C655.197815,34.725910 650.688477,34.756908 645.044006,34.756908 
	C659.145630,54.547333 672.429321,73.189751 685.917542,92.119293 
	C688.510925,88.956268 690.595581,86.413803 693.544495,83.942001 
	C699.366516,83.752975 699.661743,83.279800 698.154541,76.236565 
M731.746460,116.815971 
	C729.187500,114.096695 728.247864,109.430237 723.341003,109.239792 
	C723.341003,109.239792 723.783630,109.033722 724.348633,108.716789 
	C724.513855,108.330383 724.679077,107.943977 725.049744,106.938042 
	C742.931396,83.203796 760.813049,59.469551 779.481750,34.690617 
	C768.704041,34.690617 759.299683,34.829678 749.903442,34.616291 
	C746.548767,34.540108 744.493774,35.661251 742.484192,38.344021 
	C730.551270,54.274391 718.419067,70.055519 706.002441,85.124107 
	C702.423584,82.615402 699.763123,85.029221 698.056274,87.428299 
	C696.357422,89.816269 695.679871,93.082870 699.066162,95.764679 
	C680.889648,119.639320 662.713196,143.513962 643.765625,168.401413 
	C654.439331,168.401413 663.839783,168.239838 673.229614,168.484756 
	C676.748901,168.576569 678.961487,167.542267 681.109924,164.675491 
	C691.865784,150.323456 702.869934,136.157501 714.331055,121.738098 
	C714.577087,121.239792 714.823120,120.741478 715.273804,119.598083 
	C716.825195,117.722603 718.376587,115.847130 720.672424,114.066788 
	C722.129089,114.650986 723.585754,115.235184 725.623169,116.052292 
	C721.442627,119.936340 724.022034,122.629456 725.989319,126.025734 
	C724.260498,128.451752 722.531738,130.877777 720.652222,133.515289 
	C728.765381,144.537720 736.816345,155.516281 744.944214,166.437546 
	C745.566650,167.273880 746.726440,168.234131 747.646912,168.244919 
	C758.386902,168.370880 769.128906,168.325577 780.641846,168.325577 
	C766.185486,148.685593 752.246033,129.747910 738.076538,110.497711 
	C735.900818,113.048241 734.140015,115.112320 731.746460,116.815971 
M622.015869,153.265198 
	C618.141785,148.130936 614.267639,142.996674 610.236877,137.323730 
	C609.057922,135.795471 607.879028,134.267227 606.425354,132.067001 
	C603.987122,128.607941 601.548889,125.148872 599.000000,121.532768 
	C600.898071,120.751579 602.304077,120.232796 603.660034,119.605774 
	C620.261902,111.928894 628.043579,98.650887 628.200195,80.646088 
	C628.362732,61.959965 621.145386,47.327549 603.362976,39.977676 
	C596.151489,36.997013 587.959229,35.419823 580.133911,35.090393 
	C562.499512,34.348042 544.815674,34.780533 527.151917,34.739693 
	C522.867676,34.729786 518.583374,34.738216 514.174683,34.738216 
	C514.174683,79.430595 514.174683,123.657761 514.174683,167.893982 
	C523.699890,167.893982 532.905579,167.893982 542.435303,167.893982 
	C542.435303,153.896484 542.435303,140.291260 542.435303,126.198570 
	C550.551453,126.198570 558.352051,125.980339 566.125305,126.344681 
	C568.192139,126.441551 570.787720,127.839149 572.088562,129.475708 
	C577.147400,135.840118 581.783020,142.540924 586.746948,149.688980 
	C588.595154,152.230087 590.443420,154.771179 592.550171,157.978119 
	C596.409241,163.310303 598.851440,170.824265 608.915405,168.230530 
	C616.599487,168.230530 624.283630,168.230530 633.160706,168.230530 
	C628.982788,162.782867 625.590515,158.359558 622.015869,153.265198 
M161.889816,93.609184 
	C147.441910,74.890038 133.017075,56.152954 118.496742,37.490170 
	C117.475868,36.178051 115.777863,34.582413 114.346542,34.533676 
	C106.080322,34.252216 97.799614,34.396351 89.383270,34.396351 
	C89.383270,79.397354 89.383270,123.619370 89.383270,167.925354 
	C98.881599,167.925354 108.082954,167.925354 117.816116,167.925354 
	C117.816116,138.727844 117.816116,109.910149 117.816116,79.820473 
	C120.842186,83.704277 123.058868,86.532700 125.258163,89.374580 
	C144.315140,113.999626 163.344437,138.646194 182.469666,163.218109 
	C184.026443,165.218262 186.136581,168.062088 188.153763,168.205566 
	C196.226639,168.779770 204.364334,168.442688 212.659134,168.442688 
	C212.659134,123.620995 212.659134,79.391014 212.659134,34.873127 
	C203.340485,34.873127 194.282776,34.873127 184.621307,34.873127 
	C184.621307,63.870983 184.621307,92.678932 184.621307,122.929382 
	C176.564423,112.551666 169.434967,103.368523 161.889816,93.609184 
M383.134796,134.499985 
	C383.134796,145.615570 383.134796,156.731155 383.134796,168.074738 
	C418.045929,168.074738 452.448944,168.074738 487.219757,168.074738 
	C487.219757,159.994324 487.219757,152.114349 487.219757,143.828308 
	C461.917603,143.828308 436.982605,143.828308 411.786621,143.828308 
	C411.786621,115.409653 411.786621,87.398140 411.786621,59.021763 
	C436.837982,59.021763 461.438293,59.021763 486.197327,59.021763 
	C486.197327,50.771786 486.197327,42.892300 486.197327,34.961121 
	C451.726837,34.961121 417.653748,34.961121 383.134888,34.961121 
	C383.134888,67.970886 383.134888,100.735428 383.134796,134.499985 
M338.044617,37.268559 
	C325.061523,68.891365 312.078400,100.514168 298.702271,133.094315 
	C295.483093,125.354210 292.689728,118.781036 290.007355,112.162895 
	C280.074402,87.655724 270.219177,63.116814 260.175354,38.655293 
	C259.505402,37.023598 257.552612,34.833290 256.121887,34.776337 
	C247.170761,34.420013 238.198441,34.596371 229.116501,34.596371 
	C229.192703,35.589520 229.105789,36.122509 229.284027,36.543152 
	C247.387253,79.267746 265.549683,121.967377 283.553894,164.733612 
	C284.909698,167.954117 286.683868,168.837189 289.938080,168.661819 
	C295.088013,168.384293 300.304626,168.123001 305.413208,168.641449 
	C310.579895,169.165833 312.982086,167.284286 314.955231,162.528427 
	C327.703766,131.800507 340.784729,101.210579 353.747559,70.571533 
	C358.769897,58.700783 363.768585,46.820015 368.927948,34.588375 
	C359.603882,34.588375 350.789734,34.515533 341.979736,34.672493 
	C340.758057,34.694256 339.556641,35.850693 338.044617,37.268559 
M28.001169,132.500000 
	C28.001169,144.284927 28.001169,156.069855 28.001169,167.944458 
	C37.840439,167.944458 47.201553,167.944458 56.524769,167.944458 
	C56.524769,123.343483 56.524769,79.122940 56.524769,34.870247 
	C46.928005,34.870247 37.669304,34.870247 28.001848,34.870247 
	C28.001848,67.269295 28.001848,99.384644 28.001169,132.500000 
M434.412048,89.703682 
	C430.638306,89.703682 426.864532,89.703682 423.028595,89.703682 
	C423.028595,97.943924 423.028595,105.663071 423.028595,113.426025 
	C441.687714,113.426025 460.056732,113.426025 478.539490,113.426025 
	C478.539490,105.343285 478.539490,97.640755 478.539490,89.699333 
	C463.937866,89.699333 449.655731,89.699333 434.412048,89.703682 
z" />
	<path fill="#303F4B" opacity="1.000000" stroke="none" d="
M162.097656,93.897285 
	C169.434967,103.368523 176.564423,112.551666 184.621307,122.929382 
	C184.621307,92.678932 184.621307,63.870983 184.621307,34.873127 
	C194.282776,34.873127 203.340485,34.873127 212.659134,34.873127 
	C212.659134,79.391014 212.659134,123.620995 212.659134,168.442688 
	C204.364334,168.442688 196.226639,168.779770 188.153763,168.205566 
	C186.136581,168.062088 184.026443,165.218262 182.469666,163.218109 
	C163.344437,138.646194 144.315140,113.999626 125.258163,89.374580 
	C123.058868,86.532700 120.842186,83.704277 117.816116,79.820473 
	C117.816116,109.910149 117.816116,138.727844 117.816116,167.925354 
	C108.082954,167.925354 98.881599,167.925354 89.383270,167.925354 
	C89.383270,123.619370 89.383270,79.397354 89.383270,34.396351 
	C97.799614,34.396351 106.080322,34.252216 114.346542,34.533676 
	C115.777863,34.582413 117.475868,36.178051 118.496742,37.490170 
	C133.017075,56.152954 147.441910,74.890038 162.097656,93.897285 
z" />
	<path fill="#2F3F4A" opacity="1.000000" stroke="none" d="
M610.393555,137.862411 
	C614.267639,142.996674 618.141785,148.130936 621.726990,153.621017 
	C617.551147,156.909851 613.779236,160.015808 609.731750,162.707428 
	C607.499756,164.191696 607.157349,165.778793 608.000000,168.011017 
	C598.851440,170.824265 596.409241,163.310303 592.779236,157.474045 
	C593.788635,155.733185 595.405151,154.319550 595.188171,153.293671 
	C594.602051,150.522110 593.967285,146.897018 592.004089,145.486984 
	C589.200989,143.473724 587.471802,146.419479 586.576172,149.116547 
	C581.783020,142.540924 577.147400,135.840118 572.088562,129.475708 
	C570.787720,127.839149 568.192139,126.441551 566.125305,126.344681 
	C558.352051,125.980339 550.551453,126.198570 542.435303,126.198570 
	C542.435303,140.291260 542.435303,153.896484 542.435303,167.893982 
	C532.905579,167.893982 523.699890,167.893982 514.174683,167.893982 
	C514.174683,123.657761 514.174683,79.430595 514.174683,34.738216 
	C518.583374,34.738216 522.867676,34.729786 527.151917,34.739693 
	C544.815674,34.780533 562.499512,34.348042 580.133911,35.090393 
	C587.959229,35.419823 596.151489,36.997013 603.362976,39.977676 
	C621.145386,47.327549 628.362732,61.959965 628.200195,80.646088 
	C628.043579,98.650887 620.261902,111.928894 603.660034,119.605774 
	C602.304077,120.232796 600.898071,120.751579 599.000000,121.532768 
	C601.548889,125.148872 603.987122,128.607941 606.143066,132.466278 
	C602.426758,135.300690 598.684082,137.411530 595.666382,140.283981 
	C593.624084,142.228027 595.082092,146.468964 597.332458,146.830215 
	C600.855408,147.395752 609.556030,141.421875 610.393555,137.862411 
M594.190979,95.674156 
	C600.247375,88.677078 601.012085,80.707222 598.022278,72.327194 
	C595.198853,64.413376 588.841248,60.263451 580.887878,59.901566 
	C568.177734,59.323246 555.421997,59.746815 542.536621,59.746815 
	C542.536621,73.761032 542.536621,87.797585 542.536621,101.982674 
	C555.479126,101.982674 568.121460,102.475159 580.688293,101.716721 
	C585.113098,101.449677 589.352966,98.119240 594.190979,95.674156 
z" />
	<path fill="#303F49" opacity="1.000000" stroke="none" d="
M383.134827,133.999969 
	C383.134888,100.735428 383.134888,67.970886 383.134888,34.961121 
	C417.653748,34.961121 451.726837,34.961121 486.197327,34.961121 
	C486.197327,42.892300 486.197327,50.771786 486.197327,59.021763 
	C461.438293,59.021763 436.837982,59.021763 411.786621,59.021763 
	C411.786621,87.398140 411.786621,115.409653 411.786621,143.828308 
	C436.982605,143.828308 461.917603,143.828308 487.219757,143.828308 
	C487.219757,152.114349 487.219757,159.994324 487.219757,168.074738 
	C452.448944,168.074738 418.045929,168.074738 383.134796,168.074738 
	C383.134796,156.731155 383.134796,145.615570 383.134827,133.999969 
z" />
	<path fill="#30404B" opacity="1.000000" stroke="none" d="
M338.195221,36.875202 
	C339.556641,35.850693 340.758057,34.694256 341.979736,34.672493 
	C350.789734,34.515533 359.603882,34.588375 368.927948,34.588375 
	C363.768585,46.820015 358.769897,58.700783 353.747559,70.571533 
	C340.784729,101.210579 327.703766,131.800507 314.955231,162.528427 
	C312.982086,167.284286 310.579895,169.165833 305.413208,168.641449 
	C300.304626,168.123001 295.088013,168.384293 289.938080,168.661819 
	C286.683868,168.837189 284.909698,167.954117 283.553894,164.733612 
	C265.549683,121.967377 247.387253,79.267746 229.284027,36.543152 
	C229.105789,36.122509 229.192703,35.589520 229.116501,34.596371 
	C238.198441,34.596371 247.170761,34.420013 256.121887,34.776337 
	C257.552612,34.833290 259.505402,37.023598 260.175354,38.655293 
	C270.219177,63.116814 280.074402,87.655724 290.007355,112.162895 
	C292.689728,118.781036 295.483093,125.354210 298.702271,133.094315 
	C312.078400,100.514168 325.061523,68.891365 338.195221,36.875202 
z" />
	<path fill="#30414D" opacity="1.000000" stroke="none" d="
M719.927979,113.971664 
	C718.376587,115.847130 716.825195,117.722603 714.933350,120.060165 
	C714.324219,120.990196 714.055481,121.458153 713.786743,121.926125 
	C702.869934,136.157501 691.865784,150.323456 681.109924,164.675491 
	C678.961487,167.542267 676.748901,168.576569 673.229614,168.484756 
	C663.839783,168.239838 654.439331,168.401413 643.765625,168.401413 
	C662.713196,143.513962 680.889648,119.639320 699.466797,95.273880 
	C702.029541,91.817650 704.191711,88.852219 706.353882,85.886780 
	C718.419067,70.055519 730.551270,54.274391 742.484192,38.344021 
	C744.493774,35.661251 746.548767,34.540108 749.903442,34.616291 
	C759.299683,34.829678 768.704041,34.690617 779.481750,34.690617 
	C760.813049,59.469551 742.931396,83.203796 724.673645,107.412033 
	C724.126282,108.268593 723.954956,108.651161 723.783630,109.033730 
	C723.783630,109.033722 723.341003,109.239792 723.019409,109.629066 
	C721.774597,111.336121 720.851318,112.653893 719.927979,113.971664 
z" />
	<path fill="#313F4B" opacity="1.000000" stroke="none" d="
M28.001509,132.000000 
	C28.001848,99.384644 28.001848,67.269295 28.001848,34.870247 
	C37.669304,34.870247 46.928005,34.870247 56.524769,34.870247 
	C56.524769,79.122940 56.524769,123.343483 56.524769,167.944458 
	C47.201553,167.944458 37.840439,167.944458 28.001169,167.944458 
	C28.001169,156.069855 28.001169,144.284927 28.001509,132.000000 
z" />
	<path fill="#31414D" opacity="1.000000" stroke="none" d="
M732.379211,117.176407 
	C734.140015,115.112320 735.900818,113.048241 738.076538,110.497711 
	C752.246033,129.747910 766.185486,148.685593 780.641846,168.325577 
	C769.128906,168.325577 758.386902,168.370880 747.646912,168.244919 
	C746.726440,168.234131 745.566650,167.273880 744.944214,166.437546 
	C736.816345,155.516281 728.765381,144.537720 720.652222,133.515289 
	C722.531738,130.877777 724.260498,128.451752 726.377319,125.524567 
	C728.636536,122.407745 730.507874,119.792076 732.379211,117.176407 
z" />
	<path fill="#31414D" opacity="1.000000" stroke="none" d="
M692.680115,83.871307 
	C690.595581,86.413803 688.510925,88.956268 685.917542,92.119293 
	C672.429321,73.189751 659.145630,54.547333 645.044006,34.756908 
	C650.688477,34.756908 655.197815,34.725910 659.706665,34.764305 
	C666.180908,34.819431 673.653381,32.950939 678.842285,35.575600 
	C683.831238,38.099087 686.471313,45.285122 690.116516,50.441437 
	C694.529968,56.684483 698.915039,62.947567 703.387695,69.309105 
	C701.541870,71.752541 699.848206,73.994553 697.750061,76.709000 
	C695.790405,79.411377 694.235229,81.641327 692.680115,83.871307 
z" />
	<path fill="#33424C" opacity="1.000000" stroke="none" d="
M434.892822,89.701508 
	C449.655731,89.699333 463.937866,89.699333 478.539490,89.699333 
	C478.539490,97.640755 478.539490,105.343285 478.539490,113.426025 
	C460.056732,113.426025 441.687714,113.426025 423.028595,113.426025 
	C423.028595,105.663071 423.028595,97.943924 423.028595,89.703682 
	C426.864532,89.703682 430.638306,89.703682 434.892822,89.701508 
z" />
	<path fill="#31404C" opacity="1.000000" stroke="none" d="
M608.457703,168.120773 
	C607.157349,165.778793 607.499756,164.191696 609.731750,162.707428 
	C613.779236,160.015808 617.551147,156.909851 621.818115,153.956543 
	C625.590515,158.359558 628.982788,162.782867 633.160706,168.230530 
	C624.283630,168.230530 616.599487,168.230530 608.457703,168.120773 
z" />
	<path fill="#31404C" opacity="1.000000" stroke="none" d="
M610.315186,137.593079 
	C609.556030,141.421875 600.855408,147.395752 597.332458,146.830215 
	C595.082092,146.468964 593.624084,142.228027 595.666382,140.283981 
	C598.684082,137.411530 602.426758,135.300690 606.280396,132.802261 
	C607.879028,134.267227 609.057922,135.795471 610.315186,137.593079 
z" />
	<path fill="#F7F8F3" opacity="1.000000" stroke="none" d="
M732.062866,116.996185 
	C730.507874,119.792076 728.636536,122.407745 726.471069,125.204880 
	C724.022034,122.629456 721.442627,119.936340 725.623169,116.052292 
	C723.585754,115.235184 722.129089,114.650986 720.300171,114.019226 
	C720.851318,112.653893 721.774597,111.336121 722.947754,109.862442 
	C728.247864,109.430237 729.187500,114.096695 732.062866,116.996185 
z" />
	<path fill="#31404C" opacity="1.000000" stroke="none" d="
M586.661560,149.402771 
	C587.471802,146.419479 589.200989,143.473724 592.004089,145.486984 
	C593.967285,146.897018 594.602051,150.522110 595.188171,153.293671 
	C595.405151,154.319550 593.788635,155.733185 592.649963,157.141113 
	C590.443420,154.771179 588.595154,152.230087 586.661560,149.402771 
z" />
	<path fill="#F8F7F5" opacity="1.000000" stroke="none" d="
M706.178101,85.505447 
	C704.191711,88.852219 702.029541,91.817650 699.586304,94.948044 
	C695.679871,93.082870 696.357422,89.816269 698.056274,87.428299 
	C699.763123,85.029221 702.423584,82.615402 706.178101,85.505447 
z" />
	<path fill="#F8F7F5" opacity="1.000000" stroke="none" d="
M693.112305,83.906639 
	C694.235229,81.641327 695.790405,79.411377 697.647705,77.030731 
	C699.661743,83.279800 699.366516,83.752975 693.112305,83.906639 
z" />
	<path fill="#F7F8F3" opacity="1.000000" stroke="none" d="
M714.058899,121.832108 
	C714.055481,121.458153 714.324219,120.990196 714.831055,120.382706 
	C714.823120,120.741478 714.577087,121.239792 714.058899,121.832108 
z" />
	<path fill="#F7F8F3" opacity="1.000000" stroke="none" d="
M724.066162,108.875259 
	C723.954956,108.651161 724.126282,108.268593 724.570923,107.721802 
	C724.679077,107.943977 724.513855,108.330383 724.066162,108.875259 
z" />
	<path fill="#FCFCFB" opacity="1.000000" stroke="none" d="
M593.934143,95.930832 
	C589.352966,98.119240 585.113098,101.449677 580.688293,101.716721 
	C568.121460,102.475159 555.479126,101.982674 542.536621,101.982674 
	C542.536621,87.797585 542.536621,73.761032 542.536621,59.746815 
	C555.421997,59.746815 568.177734,59.323246 580.887878,59.901566 
	C588.841248,60.263451 595.198853,64.413376 598.022278,72.327194 
	C601.012085,80.707222 600.247375,88.677078 593.934143,95.930832 
z" />
</svg>